<svg xmlns="http://www.w3.org/2000/svg" width="1040" height="620" viewBox="0 0 1040 620" role="img" aria-labelledby="title desc">
  <title id="title">P3D MAIN 설비별 이상감지 화면 안내</title>
  <desc id="desc">P3D MAIN 화면에서 SDWT 필터, 대상스탭 목록, eqp별 chart, Wafer List, PM 이력을 확인하는 위치를 설명합니다.</desc>
  <defs>
    <marker id="callout" markerWidth="10" markerHeight="10" refX="8" refY="5" orient="auto">
      <path d="M1 1l8 4-8 4z" fill="#6a52d9"/>
    </marker>
  </defs>
  <rect width="1040" height="620" rx="28" fill="#fbfaff"/>
  <rect x="48" y="48" width="944" height="524" rx="20" fill="#ffffff" stroke="#ded7ef"/>
  <rect x="78" y="78" width="884" height="72" rx="14" fill="#f7f3ff" stroke="#ded7ef"/>
  <text x="108" y="112" fill="#2f204d" font-family="Pretendard, Inter, Arial, sans-serif" font-size="24" font-weight="800">P3D MAIN 설비별 이상감지</text>
  <rect x="720" y="94" width="90" height="28" rx="14" fill="#e9f5f2"/>
  <text x="765" y="113" text-anchor="middle" fill="#147b68" font-family="Pretendard, Inter, Arial, sans-serif" font-size="13" font-weight="800">SDWT ALL</text>
  <rect x="820" y="94" width="116" height="28" rx="14" fill="#efeafd"/>
  <text x="878" y="113" text-anchor="middle" fill="#6045cf" font-family="Pretendard, Inter, Arial, sans-serif" font-size="13" font-weight="800">실제 파일 기반</text>

  <rect x="78" y="170" width="250" height="364" rx="16" fill="#faf9ff" stroke="#ded7ef"/>
  <text x="104" y="205" fill="#6f6382" font-family="Pretendard, Inter, Arial, sans-serif" font-size="12" font-weight="800">MAIN STEP</text>
  <text x="104" y="232" fill="#2f204d" font-family="Pretendard, Inter, Arial, sans-serif" font-size="19" font-weight="800">대상스탭</text>
  <rect x="104" y="258" width="198" height="58" rx="10" fill="#ffffff" stroke="#ded7ef"/>
  <text x="124" y="282" fill="#2f204d" font-family="Pretendard, Inter, Arial, sans-serif" font-size="13" font-weight="800">▾ STEP A</text>
  <rect x="126" y="294" width="156" height="24" rx="8" fill="#765ee6"/>
  <text x="204" y="311" text-anchor="middle" fill="#ffffff" font-family="Pretendard, Inter, Arial, sans-serif" font-size="12" font-weight="800">MET 010203 / ITEM</text>
  <rect x="104" y="328" width="198" height="48" rx="10" fill="#ffffff" stroke="#ded7ef"/>
  <text x="124" y="358" fill="#6f6382" font-family="Pretendard, Inter, Arial, sans-serif" font-size="13" font-weight="700">▸ STEP B</text>
  <rect x="104" y="388" width="198" height="48" rx="10" fill="#ffffff" stroke="#ded7ef"/>
  <text x="124" y="418" fill="#6f6382" font-family="Pretendard, Inter, Arial, sans-serif" font-size="13" font-weight="700">▸ STEP C</text>

  <rect x="356" y="170" width="606" height="364" rx="16" fill="#ffffff" stroke="#ded7ef"/>
  <text x="386" y="205" fill="#6f6382" font-family="Pretendard, Inter, Arial, sans-serif" font-size="12" font-weight="800">EQUIPMENT CHARTS</text>
  <text x="386" y="232" fill="#2f204d" font-family="Pretendard, Inter, Arial, sans-serif" font-size="19" font-weight="800">선택 MET 스탭의 eqp별 chart</text>
  <rect x="386" y="258" width="522" height="146" rx="12" fill="#faf9ff" stroke="#ded7ef"/>
  <text x="410" y="286" fill="#2f204d" font-family="Pretendard, Inter, Arial, sans-serif" font-size="14" font-weight="800">EQP-01 / 중심치 이상 / 산포이상</text>
  <line x1="422" y1="370" x2="762" y2="370" stroke="#b9b0c9"/>
  <line x1="422" y1="308" x2="422" y2="370" stroke="#b9b0c9"/>
  <circle cx="464" cy="346" r="3" fill="#8d7adf" opacity="0.45"/>
  <circle cx="510" cy="331" r="3" fill="#2d8bc7" opacity="0.45"/>
  <circle cx="552" cy="352" r="3" fill="#8d7adf" opacity="0.45"/>
  <circle cx="618" cy="324" r="6" fill="#db2f2f" stroke="#ffffff" stroke-width="2"/>
  <circle cx="688" cy="340" r="6" fill="#263a72" stroke="#ffffff" stroke-width="2"/>
  <rect x="784" y="300" width="92" height="72" rx="10" fill="#ffffff" stroke="#ded7ef"/>
  <text x="802" y="323" fill="#6f6382" font-family="Pretendard, Inter, Arial, sans-serif" font-size="11" font-weight="800">Legend</text>
  <circle cx="804" cy="342" r="4" fill="#db2f2f"/>
  <text x="816" y="346" fill="#2f204d" font-family="Pretendard, Inter, Arial, sans-serif" font-size="10" font-weight="700">EQP-01</text>
  <circle cx="804" cy="360" r="4" fill="#9aa0aa"/>
  <text x="816" y="364" fill="#6f6382" font-family="Pretendard, Inter, Arial, sans-serif" font-size="10" font-weight="700">비교군</text>
  <rect x="386" y="422" width="246" height="54" rx="10" fill="#ffffff" stroke="#ded7ef"/>
  <text x="410" y="455" fill="#2f204d" font-family="Pretendard, Inter, Arial, sans-serif" font-size="14" font-weight="800">이상감지 Wafer List 보기</text>
  <rect x="648" y="422" width="246" height="54" rx="10" fill="#ffffff" stroke="#ded7ef"/>
  <text x="672" y="455" fill="#2f204d" font-family="Pretendard, Inter, Arial, sans-serif" font-size="14" font-weight="800">PM 이력 보기</text>

  <path d="M238 303c68 0 87-8 135-8" stroke="#6a52d9" stroke-width="3" fill="none" marker-end="url(#callout)"/>
  <text x="132" y="558" fill="#6045cf" font-family="Pretendard, Inter, Arial, sans-serif" font-size="15" font-weight="800">1</text>
  <text x="154" y="558" fill="#6f6382" font-family="Pretendard, Inter, Arial, sans-serif" font-size="14" font-weight="650">좌측에서 main_step을 펼치고 MET 스탭을 선택합니다.</text>
  <text x="512" y="558" fill="#6045cf" font-family="Pretendard, Inter, Arial, sans-serif" font-size="15" font-weight="800">2</text>
  <text x="534" y="558" fill="#6f6382" font-family="Pretendard, Inter, Arial, sans-serif" font-size="14" font-weight="650">우측 chart에서 빨간 이상 point와 비교군 분포를 같이 봅니다.</text>
</svg>
